<svg width="28" height="25" viewBox="0 0 28 25" fill="none" xmlns="http://www.w3.org/2000/svg">
<g clip-path="url(#clip0_3624_1768)">
<path d="M13.7074 0.866333C7.95858 0.866333 3.2832 5.54312 3.2832 11.2905C3.2832 17.0379 7.95999 21.7147 13.7074 21.7147C19.4547 21.7147 24.1315 17.0379 24.1315 11.2905C24.1315 5.54312 19.4547 0.866333 13.7074 0.866333ZM21.2846 7.2448H17.7643C17.5108 5.69526 17.1079 4.28518 16.5585 3.18641C18.5926 3.90484 20.2774 5.36563 21.2832 7.2448H21.2846ZM22.3003 11.2905C22.3003 12.0568 22.1988 12.7978 22.0101 13.5049H17.9911C18.0531 12.7752 18.0841 12.0329 18.0841 11.2905C18.0841 10.5481 18.0517 9.80435 17.9911 9.07607H22.0101C22.1988 9.78322 22.3003 10.5256 22.3003 11.2905ZM13.7074 19.8834C13.0847 19.8834 12.0367 18.3043 11.5 15.3362H15.9148C15.3795 18.3029 14.33 19.8834 13.7074 19.8834ZM11.2577 13.5063C11.1971 12.8189 11.1619 12.0822 11.1619 11.2919C11.1619 10.5016 11.1971 9.7635 11.2577 9.07748H16.1556C16.2162 9.76491 16.2514 10.5016 16.2514 11.2919C16.2514 12.0822 16.2162 12.8203 16.1556 13.5063H11.2577ZM5.11448 11.2905C5.11448 10.5242 5.2159 9.78322 5.40466 9.07607H9.4236C9.36162 9.80576 9.33063 10.5481 9.33063 11.2905C9.33063 12.0329 9.36303 12.7766 9.4236 13.5049H5.40466C5.2159 12.7978 5.11448 12.0554 5.11448 11.2905ZM13.7074 2.69761C14.33 2.69761 15.3795 4.27673 15.9148 7.2448H11.5C12.0353 4.27673 13.0847 2.69761 13.7074 2.69761ZM10.8548 3.18782C10.3054 4.28659 9.90255 5.69667 9.64899 7.2462H6.12872C7.13592 5.36845 8.82069 3.90625 10.8534 3.18782H10.8548ZM6.12872 15.3376H9.64899C9.90255 16.8871 10.3054 18.2972 10.8548 19.396C8.82069 18.6776 7.13592 17.2168 6.12872 15.3376ZM16.5599 19.396C17.1093 18.2972 17.5122 16.8871 17.7658 15.3376H21.286C20.2788 17.2154 18.594 18.6776 16.5613 19.396H16.5599Z" fill="url(#paint0_linear_3624_1768)"/>
</g>
<defs>
<linearGradient id="paint0_linear_3624_1768" x1="3.2832" y1="11.2905" x2="24.1315" y2="11.2905" gradientUnits="userSpaceOnUse">
<stop stop-color="#5F1EBE"/>
<stop offset="1" stop-color="#3C91FF"/>
</linearGradient>
<clipPath id="clip0_3624_1768">
<rect width="27" height="25" fill="white" transform="translate(0.206787)"/>
</clipPath>
</defs>
</svg>
