<svg width="31" height="21" viewBox="0 0 31 21" fill="none" xmlns="http://www.w3.org/2000/svg">
<g clip-path="url(#clip0_3624_1759)">
<g clip-path="url(#clip1_3624_1759)">
<g clip-path="url(#clip2_3624_1759)">
<path d="M25.3135 0.0310974H3.10012C1.4979 0.0310974 0.206787 1.35332 0.206787 3.00221V18.0289C0.206787 19.6622 1.4979 21 3.10012 21H25.3135C26.9157 21 28.2068 19.6622 28.2068 18.0289V3.00221C28.2068 1.36888 26.9157 0.0310974 25.3135 0.0310974ZM26.0446 18.7911H2.36901V3.00221C2.36901 2.58221 2.69568 2.23999 3.11568 2.23999H25.329C25.7335 2.23999 26.0757 2.58221 26.0757 3.00221V18.7911H26.0446Z" fill="url(#paint0_linear_3624_1759)"/>
<path d="M14.0667 13.1756C13.0245 13.1756 11.9823 12.7867 11.1578 12.0089L1.9334 3.36C1.35785 2.81556 1.17118 1.97556 1.45118 1.24444C1.74674 0.482222 2.43118 0 3.20896 0H24.8934C25.6712 0 26.3712 0.482222 26.6512 1.22889C26.9312 1.97556 26.7445 2.81556 26.169 3.34444L16.9601 11.9933C16.1356 12.7711 15.0934 13.16 14.0512 13.16L14.0667 13.1756ZM3.90896 2.20889L12.6045 10.3756C13.429 11.1533 14.689 11.1533 15.5134 10.3756L24.209 2.20889H3.90896Z" fill="url(#paint1_linear_3624_1759)"/>
</g>
</g>
</g>
<defs>
<linearGradient id="paint0_linear_3624_1759" x1="0.206787" y1="10.5155" x2="28.2068" y2="10.5155" gradientUnits="userSpaceOnUse">
<stop stop-color="#5F1EBE"/>
<stop offset="1" stop-color="#3C91FF"/>
</linearGradient>
<linearGradient id="paint1_linear_3624_1759" x1="1.32674" y1="6.59556" x2="26.7912" y2="6.59556" gradientUnits="userSpaceOnUse">
<stop stop-color="#5F1EBE"/>
<stop offset="1" stop-color="#3C91FF"/>
</linearGradient>
<clipPath id="clip0_3624_1759">
<rect x="0.206787" width="30" height="21" rx="5" fill="white"/>
</clipPath>
<clipPath id="clip1_3624_1759">
<rect width="30" height="21" fill="white" transform="translate(0.206787)"/>
</clipPath>
<clipPath id="clip2_3624_1759">
<rect width="28" height="21" fill="white" transform="translate(0.206787)"/>
</clipPath>
</defs>
</svg>
